<?xml version="1.0" encoding="utf-8"?>
<!-- Generator: Adobe Illustrator 20.0.0, SVG Export Plug-In . SVG Version: 6.00 Build 0)  -->
<svg version="1.1"
	 id="svg2" inkscape:export-filename="./Graduation Boy Profile Circle Silhouette - 1.0.0 - 1920x1920.png" inkscape:export-xdpi="90" inkscape:export-ydpi="90" inkscape:version="0.91 r" sodipodi:docname="Graduation Boy Profile Circle Silhouette - 1.0.0.svg" xmlns:cc="http://creativecommons.org/ns#" xmlns:dc="http://purl.org/dc/elements/1.1/" xmlns:inkscape="http://www.inkscape.org/namespaces/inkscape" xmlns:rdf="http://www.w3.org/1999/02/22-rdf-syntax-ns#" xmlns:sodipodi="http://sodipodi.sourceforge.net/DTD/sodipodi-0.dtd" xmlns:svg="http://www.w3.org/2000/svg"
	 xmlns="http://www.w3.org/2000/svg" xmlns:xlink="http://www.w3.org/1999/xlink" x="0px" y="0px" viewBox="0 0 320 320"
	 style="enable-background:new 0 0 320 320;" xml:space="preserve">
<style type="text/css">
	.st0{fill:#D7E3F4;}
</style>
<sodipodi:namedview  bordercolor="#666666" borderopacity="1.0" id="base" inkscape:bbox-nodes="true" inkscape:bbox-paths="true" inkscape:current-layer="layer1" inkscape:cx="739.98264" inkscape:cy="1427.8013" inkscape:document-units="px" inkscape:pageopacity="0.0" inkscape:pageshadow="2" inkscape:snap-bbox="true" inkscape:snap-bbox-midpoints="true" inkscape:snap-page="true" inkscape:zoom="0.175" pagecolor="#ffffff" showgrid="false" showguides="false" units="px">
	<sodipodi:guide  id="guide4206" orientation="1920.0,0" position="0.0,0"></sodipodi:guide>
	<sodipodi:guide  id="guide4208" orientation="1920.0,0" position="192.0,0"></sodipodi:guide>
	<sodipodi:guide  id="guide4210" orientation="1920.0,0" position="384.0,0"></sodipodi:guide>
	<sodipodi:guide  id="guide4212" orientation="1920.0,0" position="576.0,0"></sodipodi:guide>
	<sodipodi:guide  id="guide4214" orientation="1920.0,0" position="768.0,0"></sodipodi:guide>
	<sodipodi:guide  id="guide4216" orientation="1920.0,0" position="960.0,0"></sodipodi:guide>
	<sodipodi:guide  id="guide4218" orientation="1920.0,0" position="1152.0,0"></sodipodi:guide>
	<sodipodi:guide  id="guide4220" orientation="1920.0,0" position="1344.0,0"></sodipodi:guide>
	<sodipodi:guide  id="guide4222" orientation="1920.0,0" position="1536.0,0"></sodipodi:guide>
	<sodipodi:guide  id="guide4224" orientation="1920.0,0" position="1728.0,0"></sodipodi:guide>
	<sodipodi:guide  id="guide4226" orientation="1920.0,0" position="1920.0,0"></sodipodi:guide>
	<sodipodi:guide  id="guide4228" orientation="0,1920.0" position="0,0.0"></sodipodi:guide>
	<sodipodi:guide  id="guide4230" orientation="0,1920.0" position="0,192.0"></sodipodi:guide>
	<sodipodi:guide  id="guide4232" orientation="0,1920.0" position="0,384.0"></sodipodi:guide>
	<sodipodi:guide  id="guide4234" orientation="0,1920.0" position="0,576.0"></sodipodi:guide>
	<sodipodi:guide  id="guide4236" orientation="0,1920.0" position="0,768.0"></sodipodi:guide>
	<sodipodi:guide  id="guide4238" orientation="0,1920.0" position="0,960.0"></sodipodi:guide>
	<sodipodi:guide  id="guide4240" orientation="0,1920.0" position="0,1152.0"></sodipodi:guide>
	<sodipodi:guide  id="guide4242" orientation="0,1920.0" position="0,1344.0"></sodipodi:guide>
	<sodipodi:guide  id="guide4244" orientation="0,1920.0" position="0,1536.0"></sodipodi:guide>
	<sodipodi:guide  id="guide4246" orientation="0,1920.0" position="0,1728.0"></sodipodi:guide>
	<sodipodi:guide  id="guide4248" orientation="0,1920.0" position="0,1920.0"></sodipodi:guide>
</sodipodi:namedview>
<g id="layer1-8" transform="matrix(0.9,0,0,0.9,71.35393,198.0103)" inkscape:label="Camada 1">
	
		<path id="path4295" inkscape:connector-curvature="0" sodipodi:nodetypes="cssssssssscsssscssssssssccsssssssssssscsssscssssssssssssssscsssscsssccscsscsscscssssssssssccccccscsssssss" class="st0" d="
		M-20.3,79.5c7.7-22.8,21.2-41.8,31.6-63.1c3.2-6.5,4.7-17.3,11-21.7c5-3.5,12.1-0.2,17.4-1.1c4.9-0.8,23.5-8.1,26.3-12.8
		c3.5-6-1.2-8-4.7-12.6c-6.9-9.1-9.2-21.3-13.1-31.8c-1.7-4.6-5.4-13.7-4.9-18.3c0.3-2.7,3.9-1.8,4.1-2.7c0.5-2.4-0.3-5-0.1-7.4
		c0.5-5,4.1-24.7,2.4-27.8c-1.7-3-25.2-11.8-28.4-8.9c-6.1,5.5,18.3,83.9,13.4,85c-2.3,0.5-2.3-17.4-4.8-17.4
		c-0.1,0,3.2,31.8,2.3,31.5c-0.6-0.2-1.5-2.7-1.8-3.5c0,4.6-3.9,6.3-8.2,6.2c-9.4-0.3-7.3-6.8-6.9-13.8c0.9-17.9-0.6-35.8-1.1-53.7
		c-0.3-9.3,2.5-24.6-0.8-33.3c-2.9-7.6-5.7-3-13-6.9c-8.7-4.6,1.8-9.5,8.1-14.9c6.6-5.6,13.4-10.8,20.2-16.2
		c7.3-5.8,14.6-11.4,22.2-16.8c5.1-3.6,14.7-13.3,20.9-14.4c4.6-0.8,13.1,3.3,17.6,4.7c12.5,3.9,25,7.9,37.5,12
		c17.6,5.8,35.4,11.4,52.6,18.4c5.4,2.2,13.6,4.2,18.1,7.7c6.3,4.9,4.3,4.7-3.9,8.3c-13.3,5.8-25.2,13.1-37.6,21
		c-3.3,2.1-12.9,6-14.6,9.4c-0.6,1.2,1.4,27.4,1.9,28c0.7,1,4.5-2.1,5.8-0.2c2.1,2.9,2.5,3.2,2.8,7.7c0.3,4.1-2,10.8-3.5,14.5
		c-4,9.6-16.2,11.9-16.2,23.1c0.1,19,23.7,36,36.2,47.4c3.4,3.1,7.6,7.8,11.8,9.8c1.9,0.9,4.1-1.1,6.2-0.3c3,1.2,5.5,4.4,7.8,6.6
		c6.2,6,9.7,11.3,13.1,19.3c6,14.5,11.5,30.3,14.9,45.7c3.6,16.4,1.1,33.1,3.5,49.4c-84.8,0-169.6,0-254.5,0
		C-28.7,116.6-26.3,97.5-20.3,79.5z M30.2-38.1c-0.2-3.8-1.2-5.2-1.2-1.7c0,2.7,0.5,4.9,1,4.9C30.2-34.9,30.3-36.3,30.2-38.1
		C29.9-41.9,30.3-36.3,30.2-38.1z M35.8-31.2c-0.8-2.3-1.8-9.6-1.4-10.5C35.6-44.8,36.4-29.5,35.8-31.2z"/>
</g>
</svg>
